<!-- Generated by IcoMoon.io -->
<svg version="1.1" xmlns="http://www.w3.org/2000/svg" width="19" height="20" viewBox="0 0 19 20">
<title>area</title>
<path fill="#757575" stroke="#757575" stroke-linejoin="miter" stroke-linecap="butt" stroke-miterlimit="4" stroke-width="0.2353" d="M16.753 1.016h-14.118c-0.499 0-0.978 0.199-1.331 0.553s-0.551 0.834-0.551 1.335v14.165c0 0.501 0.198 0.981 0.551 1.335s0.832 0.553 1.331 0.553h14.118c0.499 0 0.978-0.199 1.331-0.553s0.551-0.834 0.551-1.335v-14.165c0-0.501-0.198-0.981-0.551-1.335s-0.832-0.553-1.331-0.553zM2.635 17.394c-0.086 0-0.168-0.034-0.229-0.095s-0.095-0.144-0.095-0.23v-7.85h7.824c0.086 0 0.168 0.034 0.229 0.095s0.095 0.144 0.095 0.23v7.85h-7.824zM17.077 17.069c0 0.086-0.034 0.169-0.095 0.23s-0.143 0.095-0.229 0.095h-4.735v-7.85c0-0.501-0.198-0.981-0.551-1.335s-0.832-0.553-1.331-0.553h-7.824v-4.752c0-0.086 0.034-0.169 0.095-0.23s0.143-0.095 0.229-0.095h14.118c0.086 0 0.168 0.034 0.229 0.095s0.095 0.144 0.095 0.23v14.165z"></path>
</svg>
