<!-- Generated by IcoMoon.io -->
<svg version="1.1" xmlns="http://www.w3.org/2000/svg" width="27" height="20" viewBox="0 0 27 20">
<title>bed</title>
<path fill="#757575" stroke="#757575" stroke-linejoin="miter" stroke-linecap="butt" stroke-miterlimit="4" stroke-width="0.2353" d="M24.031 9.9h-0.455v-5.271c-0.003-2.255-1.824-4.083-4.072-4.086h-12.393c-2.248 0.003-4.070 1.83-4.072 4.086v5.271h-0.455c-1.27 0.001-2.3 1.035-2.302 2.309v3.124c0.001 1.275 1.031 2.308 2.302 2.309h0.969v0.656c0.001 0.624 0.505 1.13 1.127 1.131h1.781c0.622-0.001 1.127-0.507 1.127-1.131v-0.656h11.437v0.656c0.001 0.624 0.505 1.13 1.127 1.131h1.782c0.622-0.001 1.127-0.507 1.127-1.131v-0.656h0.97c1.27-0.002 2.3-1.035 2.302-2.309v-3.124c-0.001-1.275-1.031-2.308-2.302-2.309zM4.101 4.629c0.002-1.667 1.349-3.018 3.010-3.020h12.393c1.661 0.002 3.008 1.353 3.010 3.020v5.271h-0.975v-1.846c-0.001-0.746-0.603-1.35-1.346-1.351h-5.095c-0.743 0.001-1.345 0.605-1.346 1.351v1.846h-0.888v-1.846c-0.001-0.746-0.603-1.35-1.346-1.351h-5.094c-0.743 0.001-1.346 0.605-1.346 1.351v1.846h-0.975v-5.271zM20.476 9.9h-5.663v-1.846c0-0.157 0.127-0.285 0.284-0.285h5.095c0.157 0 0.284 0.128 0.284 0.285v1.846zM11.802 9.9h-5.663v-1.846c0-0.157 0.127-0.285 0.284-0.285h5.094c0.157 0 0.284 0.128 0.284 0.285v1.846zM2.584 10.966h21.447c0.684 0.001 1.238 0.557 1.239 1.243v2.337h-23.926v-2.337c0.001-0.686 0.555-1.242 1.239-1.243zM6.527 18.299c0 0.036-0.029 0.065-0.065 0.065h-1.782c-0.036 0-0.065-0.029-0.065-0.065v-0.656h1.911v0.656zM22 18.299c0 0.036-0.029 0.065-0.065 0.065h-1.781c-0.036 0-0.065-0.029-0.065-0.065v-0.656h1.911l-0 0.656zM24.031 16.577h-21.447c-0.577-0.001-1.077-0.401-1.207-0.965h23.861c-0.13 0.564-0.63 0.964-1.207 0.965z"></path>
</svg>
