<svg width="20" height="20" viewBox="0 0 20 20" fill="none" xmlns="http://www.w3.org/2000/svg">
<path fill-rule="evenodd" clip-rule="evenodd" d="M5 0.25C5.41421 0.25 5.75 0.585786 5.75 1V2H14.25V1C14.25 0.585786 14.5858 0.25 15 0.25C15.4142 0.25 15.75 0.585786 15.75 1V2H17C18.6569 2 20 3.34315 20 5V17C20 18.6569 18.6569 20 17 20H3C1.34315 20 0 18.6569 0 17V5C0 3.34315 1.34315 2 3 2H4.25V1C4.25 0.585786 4.58579 0.25 5 0.25ZM14.25 3.5V5C14.25 5.41421 14.5858 5.75 15 5.75C15.4142 5.75 15.75 5.41421 15.75 5V3.5H17C17.8284 3.5 18.5 4.17157 18.5 5V8.25H1.5V5C1.5 4.17157 2.17157 3.5 3 3.5H4.25V5C4.25 5.41421 4.58579 5.75 5 5.75C5.41421 5.75 5.75 5.41421 5.75 5V3.5H14.25ZM1.5 9.75V17C1.5 17.8284 2.17157 18.5 3 18.5H17C17.8284 18.5 18.5 17.8284 18.5 17V9.75H1.5Z" fill="#9BAAD3"/>
</svg>
