<!-- Generated by IcoMoon.io -->
<svg version="1.1" xmlns="http://www.w3.org/2000/svg" width="20" height="20" viewBox="0 0 20 20">
<title>calendar</title>
<path fill="#9baad3" d="M5 0.25c0.414 0 0.75 0.336 0.75 0.75v1h8.5v-1c0-0.414 0.336-0.75 0.75-0.75s0.75 0.336 0.75 0.75v1h1.25c1.657 0 3 1.343 3 3v12c0 1.657-1.343 3-3 3h-14c-1.657 0-3-1.343-3-3v-12c0-1.657 1.343-3 3-3h1.25v-1c0-0.414 0.336-0.75 0.75-0.75zM14.25 3.5h-8.5v1.5c0 0.414-0.336 0.75-0.75 0.75s-0.75-0.336-0.75-0.75v-1.5h-1.25c-0.828 0-1.5 0.672-1.5 1.5v3.25h17v-3.25c0-0.828-0.672-1.5-1.5-1.5h-1.25v1.5c0 0.414-0.336 0.75-0.75 0.75s-0.75-0.336-0.75-0.75v-1.5zM1.5 9.75v7.25c0 0.828 0.672 1.5 1.5 1.5h14c0.828 0 1.5-0.672 1.5-1.5v-7.25h-17z"></path>
</svg>
