<svg width="24" height="24" viewBox="0 0 24 24" fill="none" xmlns="http://www.w3.org/2000/svg">
<path fill-rule="evenodd" clip-rule="evenodd" d="M12 20.5C16.6944 20.5 20.5 16.6944 20.5 12C20.5 7.30558 16.6944 3.5 12 3.5C7.30558 3.5 3.5 7.30558 3.5 12C3.5 16.6944 7.30558 20.5 12 20.5ZM22 12C22 17.5228 17.5228 22 12 22C6.47715 22 2 17.5228 2 12C2 6.47715 6.47715 2 12 2C17.5228 2 22 6.47715 22 12Z" fill="#9BAAD3"/>
<path fill-rule="evenodd" clip-rule="evenodd" d="M14.9368 9.06319L10.8779 10.5853C10.7427 10.636 10.636 10.7427 10.5853 10.8779L9.06319 14.9368L13.1221 13.4147C13.2573 13.364 13.364 13.2573 13.4147 13.1221L14.9368 9.06319ZM15.4401 7.27246L10.3512 9.18079C9.81036 9.38361 9.38361 9.81035 9.18079 10.3512L7.27246 15.4401C6.97101 16.244 7.75603 17.029 8.55992 16.7275L13.6488 14.8192C14.1896 14.6164 14.6164 14.1896 14.8192 13.6488L16.7275 8.55992C17.029 7.75603 16.244 6.97101 15.4401 7.27246Z" fill="#9BAAD3"/>
</svg>
