<!-- Generated by IcoMoon.io -->
<svg version="1.1" xmlns="http://www.w3.org/2000/svg" width="20" height="20" viewBox="0 0 20 20">
<path d="M10 17.083c3.912 0 7.083-3.171 7.083-7.083s-3.171-7.083-7.083-7.083c-3.912 0-7.083 3.171-7.083 7.083s3.171 7.083 7.083 7.083zM18.333 10c0 4.602-3.731 8.333-8.333 8.333s-8.333-3.731-8.333-8.333c0-4.602 3.731-8.333 8.333-8.333s8.333 3.731 8.333 8.333z"></path>
<path d="M12.447 7.553l-1.268 3.382c-0.042 0.113-0.131 0.202-0.244 0.244l-3.382 1.268 1.268-3.382c0.042-0.113 0.131-0.202 0.244-0.244l3.382-1.268zM12.867 6.060l-4.241 1.59c-0.451 0.169-0.806 0.525-0.975 0.975l-1.59 4.241c-0.251 0.67 0.403 1.324 1.073 1.073l4.241-1.59c0.451-0.169 0.806-0.525 0.975-0.975l1.59-4.241c0.251-0.67-0.403-1.324-1.073-1.073z"></path>
</svg>
