<!-- Generated by IcoMoon.io -->
<svg version="1.1" xmlns="http://www.w3.org/2000/svg" width="20" height="20" viewBox="0 0 20 20">
<title>dashboard</title>
<path fill="#fff" d="M3 20h14c1.657 0 3-1.343 3-3v-7.664c0-0.85-0.361-1.661-0.993-2.23l-7-6.3c-1.141-1.027-2.873-1.027-4.014 0l-7 6.3c-0.632 0.569-0.993 1.379-0.993 2.23v7.664c0 1.657 1.343 3 3 3zM18.5 9.336v7.664c0 0.828-0.672 1.5-1.5 1.5h-3v-5.5c0-1.657-1.343-3-3-3h-2c-1.657 0-3 1.343-3 3v5.5h-3c-0.828 0-1.5-0.672-1.5-1.5v-7.664c0-0.425 0.18-0.83 0.497-1.115l7-6.3c0.57-0.513 1.436-0.513 2.007 0l7 6.3c0.316 0.284 0.497 0.69 0.497 1.115zM7.5 18.5v-5.5c0-0.828 0.672-1.5 1.5-1.5h2c0.828 0 1.5 0.672 1.5 1.5v5.5h-5z"></path>
</svg>
