<!-- Generated by IcoMoon.io -->
<svg version="1.1" xmlns="http://www.w3.org/2000/svg" width="20" height="20" viewBox="0 0 20 20">
<path d="M15.044 12.302c0.071 0.111 0.175 0.198 0.294 0.255 0.91 0.437 1.538 1.367 1.538 2.443v1.667c0 0.345 0.28 0.625 0.625 0.625s0.625-0.28 0.625-0.625v-1.667c0-2.186-1.772-3.958-3.958-3.958-0.091 0-0.131 0.117-0.063 0.176 0.363 0.314 0.68 0.679 0.94 1.084z"></path><path d="M5.833 12.292c-1.496 0-2.708 1.213-2.708 2.708v1.667c0 0.345-0.28 0.625-0.625 0.625s-0.625-0.28-0.625-0.625v-1.667c0-2.186 1.772-3.958 3.958-3.958h5c2.186 0 3.958 1.772 3.958 3.958v1.667c0 0.345-0.28 0.625-0.625 0.625s-0.625-0.28-0.625-0.625v-1.667c0-1.496-1.213-2.708-2.708-2.708h-5z"></path><path d="M12.392 7.965c0.074-0.141 0.192-0.253 0.329-0.334 0.616-0.362 1.029-1.031 1.029-1.797s-0.413-1.435-1.029-1.797c-0.137-0.081-0.255-0.193-0.329-0.334-0.207-0.394-0.47-0.754-0.778-1.069-0.048-0.049-0.017-0.133 0.052-0.133 1.841 0 3.333 1.492 3.333 3.333s-1.492 3.333-3.333 3.333c-0.069 0-0.101-0.084-0.052-0.133 0.308-0.316 0.571-0.676 0.778-1.069z"></path><path d="M8.333 7.917c-1.151 0-2.083-0.933-2.083-2.083s0.933-2.083 2.083-2.083c1.151 0 2.083 0.933 2.083 2.083s-0.933 2.083-2.083 2.083zM8.333 9.167c1.841 0 3.333-1.492 3.333-3.333s-1.492-3.333-3.333-3.333c-1.841 0-3.333 1.492-3.333 3.333s1.492 3.333 3.333 3.333z"></path>
</svg>
