<!-- Generated by IcoMoon.io -->
<svg version="1.1" xmlns="http://www.w3.org/2000/svg" width="22" height="20" viewBox="0 0 22 20">
<path d="M20.404 1.654c-1.038-1.017-2.471-1.525-4.302-1.525-0.506 0-1.023 0.088-1.55 0.264s-1.017 0.414-1.47 0.713c-0.454 0.299-0.843 0.58-1.17 0.842s-0.637 0.541-0.931 0.836c-0.294-0.295-0.605-0.574-0.931-0.836s-0.717-0.543-1.17-0.842c-0.453-0.299-0.944-0.537-1.471-0.713s-1.044-0.264-1.55-0.264c-1.83 0-3.264 0.508-4.301 1.525s-1.556 2.426-1.556 4.23c0 0.549 0.096 1.115 0.288 1.697s0.411 1.078 0.656 1.488c0.245 0.41 0.523 0.809 0.833 1.199s0.537 0.658 0.68 0.805c0.143 0.148 0.255 0.254 0.337 0.32l7.647 7.402c0.147 0.148 0.327 0.222 0.539 0.222s0.392-0.074 0.539-0.222l7.635-7.378c1.871-1.877 2.806-3.721 2.806-5.533 0-1.804-0.519-3.213-1.556-4.229zM18.088 10.261l-7.108 6.873-7.12-6.886c-1.528-1.533-2.292-2.988-2.292-4.365 0-0.664 0.088-1.25 0.263-1.758s0.4-0.912 0.674-1.211c0.274-0.299 0.607-0.543 0.999-0.732s0.776-0.316 1.152-0.381c0.376-0.065 0.776-0.098 1.201-0.098s0.882 0.104 1.373 0.313c0.49 0.209 0.941 0.471 1.354 0.787s0.766 0.611 1.060 0.885c0.294 0.275 0.539 0.527 0.735 0.756 0.147 0.18 0.347 0.271 0.6 0.271s0.453-0.090 0.6-0.271c0.196-0.23 0.441-0.482 0.735-0.756s0.648-0.569 1.060-0.885c0.413-0.316 0.864-0.578 1.354-0.787s0.948-0.313 1.373-0.313 0.825 0.033 1.201 0.098c0.376 0.066 0.76 0.193 1.152 0.381s0.725 0.432 0.999 0.732c0.274 0.299 0.498 0.703 0.674 1.211s0.263 1.094 0.263 1.758c-0 1.377-0.768 2.836-2.304 4.377z"></path>
</svg>
