<!-- Generated by IcoMoon.io -->
<svg version="1.1" xmlns="http://www.w3.org/2000/svg" width="22" height="20" viewBox="0 0 22 20">
<path d="M19.808 3.848c-5.136-3.066-10.288-3.307-14.904-0.746-2.64 1.453-4.496 3.861-4.84 6.333-0.112 0.763-0.068 1.541 0.13 2.286s0.546 1.442 1.022 2.048c1.438-2.681 3.63-4.878 6.304-6.317 0.046-0.029 0.097-0.049 0.151-0.058s0.109-0.006 0.161 0.007c0.053 0.013 0.102 0.037 0.145 0.070s0.079 0.075 0.106 0.122c0.027 0.048 0.043 0.1 0.049 0.154s0 0.109-0.016 0.161c-0.016 0.052-0.043 0.1-0.078 0.142s-0.079 0.075-0.127 0.099c-5.224 2.922-6.928 7.312-7.896 11.237-0.001 0.087 0.028 0.172 0.080 0.241 0.152 0.193 0.416 0.153 0.904 0.161h0.864c0.872 0 0.88-0.056 0.936-0.337 0.242-1.21 0.618-2.389 1.12-3.516 3.888 1.718 9.224-0.803 11.456-3.5 0.89-1.155 1.555-2.467 1.96-3.869 0.544-1.493 1.064-2.938 2.504-4.013 0.054-0.037 0.099-0.086 0.13-0.144s0.047-0.123 0.047-0.189c0-0.066-0.016-0.131-0.047-0.189s-0.075-0.108-0.13-0.144l-0.032-0.040z"></path>
</svg>
