<!-- Generated by IcoMoon.io -->
<svg version="1.1" xmlns="http://www.w3.org/2000/svg" width="16" height="20" viewBox="0 0 16 20">
<title>location</title>
<path fill="#ff6647" d="M7.908 0.133c-3.872 0-7.011 3.222-7.011 7.198 0 3.213 4.583 9.071 6.338 11.197 0.082 0.101 0.185 0.183 0.302 0.238s0.243 0.085 0.372 0.085c0.128 0 0.255-0.029 0.372-0.085s0.219-0.137 0.302-0.238c1.756-2.126 6.338-7.983 6.338-11.197 0-3.976-3.139-7.198-7.011-7.198zM7.908 9.492c-1.259 0-2.279-1.048-2.279-2.34s1.021-2.34 2.279-2.34 2.279 1.047 2.279 2.34c0 1.292-1.021 2.34-2.279 2.34z"></path>
</svg>
