<!-- Generated by IcoMoon.io -->
<svg version="1.1" xmlns="http://www.w3.org/2000/svg" width="20" height="20" viewBox="0 0 20 20">
<path d="M10 8.75c-1.611 0-2.917-1.306-2.917-2.917s1.306-2.917 2.917-2.917c1.611 0 2.917 1.306 2.917 2.917s-1.306 2.917-2.917 2.917zM10 10c2.301 0 4.167-1.865 4.167-4.167s-1.866-4.167-4.167-4.167c-2.301 0-4.167 1.865-4.167 4.167s1.865 4.167 4.167 4.167z"></path>
<path d="M7.5 13.125c-1.956 0-3.542 1.586-3.542 3.542v0.833c0 0.345-0.28 0.625-0.625 0.625s-0.625-0.28-0.625-0.625v-0.833c0-2.646 2.145-4.792 4.792-4.792h5c2.646 0 4.792 2.145 4.792 4.792v0.833c0 0.345-0.28 0.625-0.625 0.625s-0.625-0.28-0.625-0.625v-0.833c0-1.956-1.586-3.542-3.542-3.542h-5z"></path>
</svg>
