<svg width="24" height="24" viewBox="0 0 24 24" fill="none" xmlns="http://www.w3.org/2000/svg">
<path d="M15.7331 4.41592C15.928 4.0335 16.3981 3.87864 16.7623 4.10575C18.2476 5.03194 19.4358 6.37479 20.1733 7.97461C21.0196 9.81048 21.2233 11.8778 20.7513 13.8436C20.2794 15.8093 19.1594 17.5589 17.5719 18.8104C15.9843 20.0619 14.0216 20.7425 12 20.7425C9.97845 20.7425 8.01575 20.0619 6.42817 18.8104C4.8406 17.5589 3.72061 15.8093 3.24868 13.8436C2.77675 11.8779 2.98036 9.8105 3.82671 7.97463C4.56423 6.3748 5.7524 5.03196 7.2377 4.10576C7.60189 3.87865 8.07203 4.03351 8.26689 4.41593C8.46174 4.79835 8.30694 5.26301 7.9469 5.49664C6.77094 6.25973 5.82951 7.34271 5.23822 8.62534C4.53803 10.1442 4.36958 11.8545 4.76001 13.4807C5.15044 15.107 6.07701 16.5544 7.39041 17.5898C8.70382 18.6252 10.3276 19.1883 12 19.1883C13.6725 19.1883 15.2962 18.6252 16.6096 17.5898C17.923 16.5544 18.8496 15.107 19.24 13.4807C19.6304 11.8545 19.462 10.1441 18.7618 8.62532C18.1705 7.34269 17.2291 6.25972 16.0531 5.49663C15.6931 5.263 15.5383 4.79834 15.7331 4.41592Z" fill="#9BAAD3"/>
<path fill-rule="evenodd" clip-rule="evenodd" d="M12 2.25C12.4142 2.25 12.75 2.58579 12.75 3V8C12.75 8.41421 12.4142 8.75 12 8.75C11.5858 8.75 11.25 8.41421 11.25 8V3C11.25 2.58579 11.5858 2.25 12 2.25Z" fill="#9BAAD3"/>
</svg>
