<!-- Generated by IcoMoon.io -->
<svg version="1.1" xmlns="http://www.w3.org/2000/svg" width="20" height="20" viewBox="0 0 20 20">
<title>power</title>
<path fill="#9baad3" d="M13.111 3.68c0.162-0.319 0.554-0.448 0.858-0.258 1.238 0.772 2.228 1.891 2.843 3.224 0.705 1.53 0.875 3.253 0.482 4.891s-1.327 3.096-2.649 4.139c-1.323 1.043-2.959 1.61-4.643 1.61s-3.32-0.567-4.643-1.61-2.256-2.501-2.65-4.139c-0.393-1.638-0.224-3.361 0.482-4.891 0.615-1.333 1.605-2.452 2.843-3.224 0.303-0.189 0.695-0.060 0.858 0.258s0.033 0.706-0.267 0.901c-0.98 0.636-1.764 1.538-2.257 2.607-0.583 1.266-0.724 2.691-0.399 4.046s1.097 2.561 2.192 3.424 2.448 1.332 3.841 1.332c1.394 0 2.747-0.469 3.841-1.332s1.867-2.069 2.192-3.424c0.325-1.355 0.185-2.781-0.398-4.046-0.493-1.069-1.277-1.971-2.257-2.607-0.3-0.195-0.429-0.582-0.267-0.901z"></path>
<path fill="#9baad3" d="M10 1.875c0.345 0 0.625 0.28 0.625 0.625v4.167c0 0.345-0.28 0.625-0.625 0.625s-0.625-0.28-0.625-0.625v-4.167c0-0.345 0.28-0.625 0.625-0.625z"></path>
</svg>
