<svg width="12" height="13" viewBox="0 0 12 13" fill="none" xmlns="http://www.w3.org/2000/svg">
<path d="M10.9285 5.4906C10.9137 5.40173 10.8671 5.32134 10.7974 5.26453C10.7277 5.20772 10.6398 5.1784 10.55 5.18207C10.4608 5.18422 10.3753 5.21817 10.3088 5.27783C10.2423 5.33749 10.1991 5.41896 10.187 5.50766C10.1547 5.74018 10.0982 5.96868 10.0185 6.18943C9.74986 6.98567 9.25094 7.68359 8.58538 8.19421C7.91983 8.70483 7.11779 9.00501 6.28152 9.05648C6.18852 9.06551 6.09552 9.06952 5.99852 9.06952C5.70009 9.06972 5.41396 9.18886 5.20307 9.40074C4.99219 9.61261 4.87382 9.89986 4.87402 10.1993C4.87422 10.4987 4.99297 10.7858 5.20413 10.9974C5.4153 11.209 5.70159 11.3277 6.00002 11.3275C7.18548 11.3333 8.33387 10.9134 9.23773 10.1438C10.1416 9.37415 10.7413 8.30556 10.9285 7.13107C11.0236 6.5884 11.0236 6.03326 10.9285 5.4906Z" fill="#757575"/>
<path d="M7.12494 2.42286C7.12454 2.12361 7.00589 1.83674 6.795 1.62514C6.5841 1.41354 6.29818 1.29449 5.99994 1.29409C4.81449 1.28839 3.66609 1.70827 2.76223 2.47788C1.85837 3.24749 1.25865 4.31608 1.07143 5.49058C0.976352 6.03324 0.976352 6.58839 1.07143 7.13105C1.08713 7.21763 1.13261 7.29594 1.19995 7.35232C1.26729 7.40871 1.35222 7.43959 1.43993 7.43958H1.44993C1.53913 7.43742 1.62464 7.40347 1.69116 7.34381C1.75767 7.28415 1.80084 7.20268 1.81293 7.11399C1.84525 6.88162 1.90172 6.65329 1.98143 6.43272C2.26774 5.59174 2.80917 4.86173 3.52982 4.34505C4.25047 3.82838 5.11421 3.55093 5.99994 3.55162C6.29818 3.55122 6.5841 3.43217 6.795 3.22057C7.00589 3.00897 7.12454 2.7221 7.12494 2.42286Z" fill="#757575"/>
</svg>
