<!-- Generated by IcoMoon.io -->
<svg version="1.1" xmlns="http://www.w3.org/2000/svg" width="18" height="20" viewBox="0 0 18 20">
<path d="M16.813 8.447c-0.023-0.137-0.094-0.26-0.202-0.348s-0.242-0.133-0.381-0.127c-0.137 0.003-0.269 0.056-0.371 0.147s-0.169 0.217-0.187 0.354c-0.050 0.358-0.137 0.709-0.259 1.049-0.413 1.225-1.181 2.299-2.205 3.084s-2.258 1.247-3.544 1.327c-0.143 0.014-0.286 0.020-0.435 0.020-0.459 0-0.899 0.184-1.224 0.51s-0.507 0.768-0.506 1.229c0 0.461 0.183 0.902 0.508 1.228s0.765 0.508 1.224 0.508c1.824 0.009 3.591-0.637 4.981-1.821s2.313-2.828 2.601-4.635c0.146-0.835 0.146-1.689 0-2.524z"></path>
<path d="M10.961 3.727c-0.001-0.46-0.183-0.902-0.508-1.227s-0.764-0.509-1.223-0.509c-1.824-0.009-3.591 0.637-4.981 1.821s-2.313 2.828-2.601 4.635c-0.146 0.835-0.146 1.689 0 2.524 0.024 0.133 0.094 0.254 0.198 0.34s0.234 0.134 0.369 0.134h0.015c0.137-0.003 0.269-0.056 0.371-0.147s0.169-0.217 0.187-0.354c0.050-0.357 0.137-0.709 0.259-1.048 0.44-1.294 1.273-2.417 2.382-3.212s2.438-1.222 3.8-1.221c0.459-0.001 0.899-0.184 1.223-0.509s0.507-0.767 0.508-1.227z"></path>
</svg>
