<!-- Generated by IcoMoon.io -->
<svg version="1.1" xmlns="http://www.w3.org/2000/svg" width="20" height="20" viewBox="0 0 20 20">
<title>search</title>
<path d="M16.708 15.591c1.397-1.651 2.24-3.786 2.24-6.117 0-5.232-4.241-9.474-9.474-9.474s-9.474 4.242-9.474 9.474c0 5.232 4.242 9.474 9.474 9.474 2.332 0 4.467-0.843 6.117-2.24l2.798 2.798c0.308 0.308 0.808 0.308 1.116 0s0.308-0.808 0-1.116l-2.798-2.798zM17.368 9.474c0 4.36-3.535 7.895-7.895 7.895s-7.895-3.535-7.895-7.895c0-4.36 3.535-7.895 7.895-7.895s7.895 3.535 7.895 7.895z"></path>
</svg>
