<svg width="24" height="24" viewBox="0 0 24 24" fill="none" xmlns="http://www.w3.org/2000/svg">
<path fill-rule="evenodd" clip-rule="evenodd" d="M12 14.5C13.3807 14.5 14.5 13.3807 14.5 12C14.5 10.6193 13.3807 9.5 12 9.5C10.6193 9.5 9.5 10.6193 9.5 12C9.5 13.3807 10.6193 14.5 12 14.5ZM16 12C16 14.2091 14.2091 16 12 16C9.79086 16 8 14.2091 8 12C8 9.79086 9.79086 8 12 8C14.2091 8 16 9.79086 16 12Z" fill="#9BAAD3"/>
<path fill-rule="evenodd" clip-rule="evenodd" d="M10.9047 2.84189L10.5172 4.00455C10.1904 4.9849 9.47329 5.67937 8.72212 6.09762C8.65807 6.13329 8.59465 6.16997 8.53188 6.20765C7.79322 6.65109 6.83191 6.92568 5.81829 6.71826L4.61651 6.47233C4.40566 6.42918 4.19086 6.5258 4.08326 6.71218L3.46227 7.78775C3.35467 7.97413 3.3784 8.20846 3.52119 8.36949L4.33621 9.2886C5.02026 10.06 5.26522 11.0268 5.25157 11.8882C5.25039 11.9627 5.25039 12.0373 5.25157 12.1118C5.26521 12.9732 5.02025 13.9399 4.33621 14.7113L3.52119 15.6304C3.3784 15.7915 3.35467 16.0258 3.46228 16.2122L4.08326 17.2878C4.19086 17.4741 4.40566 17.5707 4.61651 17.5276L5.8182 17.2817C6.83184 17.0743 7.79316 17.3489 8.53183 17.7923C8.59461 17.83 8.65805 17.8667 8.72212 17.9024C9.47329 18.3206 10.1904 19.0151 10.5172 19.9955L10.9047 21.1581C10.9728 21.3623 11.1638 21.5 11.3791 21.5H12.621C12.8362 21.5 13.0273 21.3623 13.0954 21.1581L13.4829 19.9955C13.8097 19.0151 14.5268 18.3206 15.2779 17.9024C15.342 17.8667 15.4054 17.83 15.4682 17.7923C16.2069 17.3489 17.1682 17.0743 18.1819 17.2817L19.3835 17.5276C19.5944 17.5707 19.8092 17.4741 19.9168 17.2878L20.5377 16.2122C20.6453 16.0258 20.6216 15.7915 20.4788 15.6304L19.6639 14.7114C18.9798 13.94 18.7348 12.9732 18.7485 12.1118C18.7497 12.0373 18.7497 11.9627 18.7485 11.8882C18.7348 11.0267 18.9798 10.06 19.6639 9.28855L20.4788 8.36949C20.6216 8.20846 20.6453 7.97414 20.5377 7.78775L19.9168 6.71218C19.8092 6.5258 19.5944 6.42919 19.3835 6.47233L18.1818 6.71825C17.1682 6.92567 16.2068 6.65108 15.4682 6.20765C15.4054 6.16997 15.342 6.13329 15.2779 6.09762C14.5268 5.67937 13.8097 4.9849 13.4829 4.00455L13.0954 2.84189C13.0273 2.63771 12.8362 2.5 12.621 2.5H11.3791C11.1638 2.5 10.9728 2.63771 10.9047 2.84189ZM9.09413 3.53021C8.91189 4.07694 8.49591 4.50673 7.9924 4.78709C7.91408 4.83069 7.83655 4.87554 7.75983 4.9216C7.26514 5.21857 6.68428 5.36439 6.11901 5.24871L4.91723 5.00278C4.07385 4.8302 3.21465 5.21665 2.78422 5.96218L2.16324 7.03775C1.73281 7.78328 1.82773 8.72059 2.39888 9.36469L3.21391 10.2838C3.59582 10.7145 3.76088 11.2889 3.75176 11.8644C3.75033 11.9548 3.75033 12.0452 3.75176 12.1355C3.76087 12.7111 3.59582 13.2854 3.21391 13.7161L2.39888 14.6352C1.82773 15.2793 1.73281 16.2167 2.16324 16.9622L2.78422 18.0378C3.21465 18.7833 4.07385 19.1697 4.91723 18.9971L6.11892 18.7512C6.68421 18.6356 7.26507 18.7814 7.75977 19.0784C7.83651 19.1244 7.91406 19.1693 7.9924 19.2129C8.49591 19.4933 8.91189 19.9231 9.09413 20.4698L9.48169 21.6325C9.75391 22.4491 10.5182 23 11.3791 23H12.621C13.4819 23 14.2462 22.4491 14.5184 21.6325L14.9059 20.4698C15.0882 19.9231 15.5042 19.4933 16.0077 19.2129C16.086 19.1693 16.1635 19.1244 16.2403 19.0784C16.735 18.7814 17.3158 18.6356 17.8811 18.7512L19.0828 18.9971C19.9262 19.1697 20.7854 18.7833 21.2158 18.0378L21.8368 16.9622C22.2672 16.2167 22.1723 15.2793 21.6011 14.6352L20.7862 13.7162C20.4042 13.2855 20.2392 12.7111 20.2483 12.1356C20.2497 12.0452 20.2497 11.9548 20.2483 11.8644C20.2392 11.2888 20.4042 10.7144 20.7862 10.2838L21.6011 9.36469C22.1723 8.72059 22.2672 7.78328 21.8368 7.03775L21.2158 5.96218C20.7854 5.21666 19.9262 4.8302 19.0828 5.00279L17.881 5.2487C17.3158 5.36438 16.7349 5.21857 16.2402 4.92159C16.1635 4.87554 16.086 4.83069 16.0077 4.78709C15.5042 4.50673 15.0882 4.07694 14.9059 3.53021L14.5184 2.36754C14.2462 1.55086 13.4819 1 12.621 1H11.3791C10.5182 1 9.75391 1.55086 9.48168 2.36754L9.09413 3.53021Z" fill="#9BAAD3"/>
</svg>
