<!-- Generated by IcoMoon.io -->
<svg version="1.1" xmlns="http://www.w3.org/2000/svg" width="20" height="20" viewBox="0 0 20 20">
<title>settings</title>
<path fill="#9baad3" d="M10 12.083c1.151 0 2.083-0.933 2.083-2.083s-0.933-2.083-2.083-2.083c-1.151 0-2.083 0.933-2.083 2.083s0.933 2.083 2.083 2.083zM13.333 10c0 1.841-1.492 3.333-3.333 3.333s-3.333-1.492-3.333-3.333c0-1.841 1.492-3.333 3.333-3.333s3.333 1.492 3.333 3.333z"></path>
<path fill="#9baad3" d="M9.087 2.368c0.057-0.17 0.216-0.285 0.395-0.285h1.035c0.179 0 0.339 0.115 0.395 0.285l0.323 0.969c0.272 0.817 0.87 1.396 1.496 1.744 0.053 0.030 0.106 0.060 0.159 0.092 0.616 0.37 1.417 0.598 2.261 0.426l1.001-0.205c0.176-0.036 0.355 0.045 0.444 0.2l0.517 0.896c0.090 0.155 0.070 0.351-0.049 0.485l-0.679 0.766c-0.57 0.643-0.774 1.448-0.763 2.166 0.001 0.062 0.001 0.124 0 0.186-0.011 0.718 0.193 1.523 0.763 2.166l0.679 0.766c0.119 0.134 0.139 0.329 0.049 0.485l-0.517 0.896c-0.090 0.155-0.269 0.236-0.444 0.2l-1.001-0.205c-0.845-0.173-1.646 0.056-2.261 0.426-0.052 0.031-0.105 0.062-0.159 0.092-0.626 0.348-1.223 0.927-1.496 1.744l-0.323 0.969c-0.057 0.17-0.216 0.285-0.395 0.285h-1.035c-0.179 0-0.339-0.115-0.395-0.285l-0.323-0.969c-0.272-0.817-0.87-1.396-1.496-1.744-0.053-0.030-0.106-0.060-0.159-0.092-0.616-0.369-1.417-0.598-2.261-0.426l-1.001 0.205c-0.176 0.036-0.355-0.045-0.444-0.2l-0.517-0.896c-0.090-0.155-0.070-0.351 0.049-0.485l0.679-0.766c0.57-0.643 0.774-1.448 0.763-2.166-0.001-0.062-0.001-0.124 0-0.186 0.011-0.718-0.193-1.523-0.763-2.166l-0.679-0.766c-0.119-0.134-0.139-0.329-0.049-0.485l0.518-0.896c0.090-0.155 0.269-0.236 0.444-0.2l1.001 0.205c0.845 0.173 1.646-0.056 2.261-0.426 0.052-0.031 0.105-0.062 0.159-0.092 0.626-0.349 1.224-0.927 1.496-1.744l0.323-0.969zM7.578 2.942c-0.152 0.456-0.499 0.814-0.918 1.047-0.065 0.036-0.13 0.074-0.194 0.112-0.412 0.247-0.896 0.369-1.367 0.273l-1.001-0.205c-0.703-0.144-1.419 0.178-1.778 0.799l-0.517 0.896c-0.359 0.621-0.28 1.402 0.196 1.939l0.679 0.766c0.318 0.359 0.456 0.838 0.448 1.317-0.001 0.075-0.001 0.151 0 0.226 0.008 0.48-0.13 0.958-0.448 1.317l-0.679 0.766c-0.476 0.537-0.555 1.318-0.196 1.939l0.517 0.896c0.359 0.621 1.075 0.943 1.778 0.799l1.001-0.205c0.471-0.096 0.955 0.025 1.367 0.273 0.064 0.038 0.129 0.076 0.194 0.112 0.42 0.234 0.766 0.592 0.918 1.047l0.323 0.969c0.227 0.681 0.864 1.14 1.581 1.14h1.035c0.717 0 1.354-0.459 1.581-1.14l0.323-0.969c0.152-0.456 0.499-0.814 0.918-1.047 0.065-0.036 0.13-0.074 0.194-0.112 0.412-0.248 0.896-0.369 1.367-0.273l1.001 0.205c0.703 0.144 1.419-0.178 1.777-0.799l0.517-0.896c0.359-0.621 0.28-1.402-0.196-1.939l-0.679-0.766c-0.318-0.359-0.456-0.838-0.448-1.317 0.001-0.075 0.001-0.151 0-0.226-0.008-0.48 0.13-0.958 0.448-1.317l0.679-0.766c0.476-0.537 0.555-1.318 0.196-1.939l-0.517-0.896c-0.359-0.621-1.075-0.943-1.777-0.799l-1.002 0.205c-0.471 0.096-0.955-0.025-1.367-0.273-0.064-0.038-0.128-0.076-0.194-0.112-0.42-0.234-0.766-0.592-0.918-1.047l-0.323-0.969c-0.227-0.681-0.864-1.14-1.581-1.14h-1.035c-0.717 0-1.354 0.459-1.581 1.14l-0.323 0.969z"></path>
</svg>
