<!-- Generated by IcoMoon.io -->
<svg version="1.1" xmlns="http://www.w3.org/2000/svg" width="26" height="20" viewBox="0 0 26 20">
<title>skyscraper</title>
<path fill="#757575" stroke="#757575" stroke-linejoin="miter" stroke-linecap="butt" stroke-miterlimit="4" stroke-width="0.2353" d="M24.894 18.674h-1.084v-4.155c0-0.1-0.040-0.196-0.11-0.267s-0.166-0.111-0.266-0.111h-2.545v-8.688c0-0.1-0.040-0.196-0.11-0.267s-0.166-0.111-0.266-0.111h-2.541v-4.155c0-0.1-0.040-0.196-0.11-0.267s-0.166-0.111-0.266-0.111h-8.753c-0.1 0-0.196 0.040-0.266 0.111s-0.11 0.167-0.11 0.267v4.155h-2.541c-0.1 0-0.196 0.040-0.266 0.111s-0.11 0.167-0.11 0.267v8.688h-2.545c-0.1 0-0.196 0.040-0.266 0.111s-0.11 0.167-0.11 0.267v4.155h-1.073c-0.1 0-0.196 0.040-0.266 0.111s-0.11 0.167-0.11 0.267c0 0.1 0.040 0.196 0.11 0.267s0.166 0.111 0.266 0.111h23.341c0.1 0 0.196-0.040 0.266-0.111s0.11-0.167 0.11-0.267c0-0.1-0.040-0.196-0.11-0.267s-0.166-0.111-0.266-0.111zM20.158 5.831v8.31h-0.376v-7.932h-1.446v7.932h-0.376v-8.31h2.199zM19.428 9.231v1.889h-0.727v-1.889h0.727zM18.701 8.476v-1.889h0.727v1.889h-0.727zM19.428 11.875v1.889h-0.727v-1.889h0.727zM3.368 14.897h2.191v3.777h-2.191v-3.777zM6.289 5.831h2.187v12.843h-2.187v-12.843zM9.207 1.299h1.461v10.199c-0.014 0.056-0.015 0.114-0.003 0.17s0.036 0.109 0.072 0.154c0.035 0.045 0.080 0.082 0.132 0.107s0.108 0.038 0.165 0.038c0.057 0 0.114-0.013 0.165-0.038s0.096-0.062 0.132-0.107c0.035-0.045 0.060-0.098 0.072-0.154s0.011-0.114-0.003-0.17v-10.199h5.843v12.843h-5.112c-0.1 0-0.196 0.040-0.266 0.111s-0.11 0.167-0.11 0.267v4.155h-2.545v-17.375zM12.493 14.897h10.586v3.777h-10.586v-3.777z"></path>
</svg>
