<!-- Generated by IcoMoon.io -->
<svg version="1.1" xmlns="http://www.w3.org/2000/svg" width="20" height="20" viewBox="0 0 20 20">
<title>tune</title>
<path fill="#fff" d="M5.271 14.792c0.29 1.426 1.551 2.5 3.063 2.5s2.773-1.074 3.063-2.5h5.271c0.345 0 0.625-0.28 0.625-0.625s-0.28-0.625-0.625-0.625h-5.271c-0.29-1.426-1.551-2.5-3.063-2.5s-2.773 1.074-3.063 2.5h-1.938c-0.345 0-0.625 0.28-0.625 0.625s0.28 0.625 0.625 0.625h1.938zM6.458 14.167c0-1.036 0.839-1.875 1.875-1.875s1.875 0.839 1.875 1.875-0.839 1.875-1.875 1.875c-1.036 0-1.875-0.839-1.875-1.875z"></path>
<path fill="#fff" d="M8.604 6.458c0.29 1.426 1.551 2.5 3.063 2.5s2.773-1.074 3.062-2.5h1.938c0.345 0 0.625-0.28 0.625-0.625s-0.28-0.625-0.625-0.625h-1.938c-0.29-1.426-1.551-2.5-3.062-2.5s-2.773 1.074-3.063 2.5h-5.271c-0.345 0-0.625 0.28-0.625 0.625s0.28 0.625 0.625 0.625h5.271zM9.792 5.833c0-1.036 0.839-1.875 1.875-1.875s1.875 0.839 1.875 1.875c0 1.036-0.839 1.875-1.875 1.875s-1.875-0.839-1.875-1.875z"></path>
</svg>
