<svg width="15" height="123" viewBox="0 0 15 123" fill="none" xmlns="http://www.w3.org/2000/svg">
<path fill-rule="evenodd" clip-rule="evenodd" d="M0 5.66675C0 2.90532 -2.23858 0.666748 -5 0.666748C-7.76142 0.666748 -10 2.90532 -10 5.66674V35.2021C-10 43.2309 -15 50.9713 -15 59.0001C-15 67.0289 -10 74.7692 -10 82.798V117.333C-10 120.095 -7.76142 122.333 -5 122.333C-2.23858 122.333 0 120.095 0 117.333V97.563C0 84.5495 15 72.0135 15 59.0001C15 58.3591 14.9598 57.7275 14.8818 57.1077C13.3873 45.2353 0 34.2996 0 22.3334V5.66675Z" fill="#FF6647"/>
</svg>
