<?xml version="1.0" encoding="utf-8"?><svg viewBox="0 0 24 123" xmlns="http://www.w3.org/2000/svg" xmlns:xlink="http://www.w3.org/1999/xlink"><style>:root>svg{display:none}:root>svg:target{display:block}</style><svg fill="none" viewBox="0 0 20 20" id="calendar" xmlns="http://www.w3.org/2000/svg"><path fill-rule="evenodd" clip-rule="evenodd" d="M5 .25a.75.75 0 01.75.75v1h8.5V1a.75.75 0 011.5 0v1H17a3 3 0 013 3v12a3 3 0 01-3 3H3a3 3 0 01-3-3V5a3 3 0 013-3h1.25V1A.75.75 0 015 .25zm9.25 3.25V5a.75.75 0 001.5 0V3.5H17A1.5 1.5 0 0118.5 5v3.25h-17V5A1.5 1.5 0 013 3.5h1.25V5a.75.75 0 001.5 0V3.5h8.5zM1.5 9.75V17A1.5 1.5 0 003 18.5h14a1.5 1.5 0 001.5-1.5V9.75h-17z" fill="#9BAAD3"/></svg><svg fill="none" viewBox="0 0 24 24" id="compass" xmlns="http://www.w3.org/2000/svg"><path fill-rule="evenodd" clip-rule="evenodd" d="M12 20.5a8.5 8.5 0 100-17 8.5 8.5 0 000 17zM22 12c0 5.523-4.477 10-10 10S2 17.523 2 12 6.477 2 12 2s10 4.477 10 10z" fill="#9BAAD3"/><path fill-rule="evenodd" clip-rule="evenodd" d="M14.937 9.063l-4.06 1.522a.5.5 0 00-.292.293l-1.522 4.059 4.06-1.522a.5.5 0 00.292-.293l1.522-4.059zm.503-1.79L10.351 9.18a2 2 0 00-1.17 1.17l-1.909 5.09c-.301.803.484 1.588 1.288 1.286l5.089-1.908a2 2 0 001.17-1.17l1.908-5.09c.302-.803-.483-1.588-1.287-1.287z" fill="#9BAAD3"/></svg><svg fill="none" viewBox="0 0 20 20" id="dashboard" xmlns="http://www.w3.org/2000/svg"><path fill-rule="evenodd" clip-rule="evenodd" d="M3 20a3 3 0 01-3-3V9.336a3 3 0 01.993-2.23l7-6.3a3 3 0 014.014 0l7 6.3A3 3 0 0120 9.336V17a3 3 0 01-3 3H3zM18.5 9.336V17a1.5 1.5 0 01-1.5 1.5h-3V13a3 3 0 00-3-3H9a3 3 0 00-3 3v5.5H3A1.5 1.5 0 011.5 17V9.336c0-.425.18-.83.497-1.115l7-6.3a1.5 1.5 0 012.006 0l7 6.3a1.5 1.5 0 01.497 1.115zM7.5 18.5V13A1.5 1.5 0 019 11.5h2a1.5 1.5 0 011.5 1.5v5.5h-5z" fill="#fff"/></svg><svg fill="none" viewBox="0 0 24 24" id="person" xmlns="http://www.w3.org/2000/svg"><path fill-rule="evenodd" clip-rule="evenodd" d="M12 10.5a3.5 3.5 0 100-7 3.5 3.5 0 000 7zm0 1.5a5 5 0 100-10 5 5 0 000 10zM9 15.75A4.25 4.25 0 004.75 20v1a.75.75 0 01-1.5 0v-1A5.75 5.75 0 019 14.25h6A5.75 5.75 0 0120.75 20v1a.75.75 0 01-1.5 0v-1A4.25 4.25 0 0015 15.75H9z" fill="#9BAAD3"/></svg><svg fill="none" viewBox="0 0 24 24" id="power" xmlns="http://www.w3.org/2000/svg"><path d="M15.733 4.416c.195-.383.665-.537 1.03-.31a9 9 0 11-9.525 0c.364-.227.834-.072 1.029.31.195.382.04.847-.32 1.08a7.446 7.446 0 108.106 0c-.36-.233-.515-.698-.32-1.08z" fill="#9BAAD3"/><path fill-rule="evenodd" clip-rule="evenodd" d="M12 2.25a.75.75 0 01.75.75v5a.75.75 0 01-1.5 0V3a.75.75 0 01.75-.75z" fill="#9BAAD3"/></svg><svg fill="none" viewBox="0 0 19 19" id="search" xmlns="http://www.w3.org/2000/svg"><path fill-rule="evenodd" clip-rule="evenodd" d="M15.872 14.812a9 9 0 10-1.06 1.06l2.658 2.658a.75.75 0 101.06-1.06l-2.658-2.658zM16.5 9a7.5 7.5 0 11-15 0 7.5 7.5 0 0115 0z" fill="#000"/></svg><svg fill="none" viewBox="0 0 24 24" id="settings" xmlns="http://www.w3.org/2000/svg"><path fill-rule="evenodd" clip-rule="evenodd" d="M12 14.5a2.5 2.5 0 100-5 2.5 2.5 0 000 5zm4-2.5a4 4 0 11-8 0 4 4 0 018 0z" fill="#9BAAD3"/><path fill-rule="evenodd" clip-rule="evenodd" d="M10.905 2.842l-.388 1.163c-.327.98-1.044 1.674-1.795 2.093a6.763 6.763 0 00-.19.11c-.739.443-1.7.718-2.714.51l-1.201-.246a.5.5 0 00-.534.24l-.62 1.076a.5.5 0 00.058.581l.815.92c.684.771.93 1.738.916 2.6-.002.074-.002.148 0 .223.013.861-.232 1.828-.916 2.6l-.815.918a.5.5 0 00-.059.582l.621 1.076a.5.5 0 00.534.24l1.201-.246c1.014-.208 1.975.067 2.714.51.063.038.126.075.19.11.751.419 1.468 1.113 1.795 2.093l.388 1.163a.5.5 0 00.474.342h1.242a.5.5 0 00.474-.342l.388-1.163c.327-.98 1.044-1.674 1.795-2.093.064-.035.127-.072.19-.11.739-.443 1.7-.718 2.714-.51l1.202.246a.5.5 0 00.533-.24l.62-1.076a.5.5 0 00-.058-.582l-.815-.919c-.684-.771-.93-1.738-.916-2.6.002-.074.002-.148 0-.223-.013-.861.232-1.828.916-2.6l.815-.919a.5.5 0 00.059-.581l-.621-1.076a.5.5 0 00-.534-.24l-1.201.246c-1.014.208-1.975-.067-2.714-.51a6.738 6.738 0 00-.19-.11c-.751-.419-1.468-1.113-1.795-2.093l-.388-1.163a.5.5 0 00-.474-.342h-1.242a.5.5 0 00-.474.342zm-1.81.688c-.183.547-.6.977-1.103 1.257a8.21 8.21 0 00-.232.135c-.495.297-1.076.442-1.641.327l-1.202-.246a2 2 0 00-2.133.96l-.62 1.075a2 2 0 00.235 2.327l.815.919c.382.43.547 1.005.538 1.58-.002.09-.002.181 0 .271.009.576-.156 1.15-.538 1.581l-.815.92a2 2 0 00-.236 2.326l.621 1.076a2 2 0 002.133.96l1.202-.247c.565-.115 1.146.03 1.64.327.078.046.155.091.233.135.504.28.92.71 1.102 1.257l.388 1.163A2 2 0 0011.379 23h1.242a2 2 0 001.897-1.367l.388-1.163c.182-.547.598-.977 1.102-1.257.078-.044.155-.089.232-.135.495-.297 1.076-.442 1.641-.327l1.202.246a2 2 0 002.133-.96l.62-1.075a2 2 0 00-.235-2.327l-.815-.919c-.382-.43-.547-1.005-.538-1.58.002-.09.002-.181 0-.272-.009-.575.156-1.15.538-1.58l.815-.92a2 2 0 00.236-2.326l-.621-1.076a2 2 0 00-2.133-.96l-1.202.247c-.565.115-1.146-.03-1.64-.327a8.231 8.231 0 00-.233-.135c-.504-.28-.92-.71-1.102-1.257l-.388-1.162A2 2 0 0012.621 1h-1.242a2 2 0 00-1.897 1.368L9.094 3.53z" fill="#9BAAD3"/></svg><svg fill="none" viewBox="0 0 24 24" id="tune" xmlns="http://www.w3.org/2000/svg"><path fill-rule="evenodd" clip-rule="evenodd" d="M6.325 17.75H4a.75.75 0 010-1.5h2.325a3.751 3.751 0 017.35 0H20a.75.75 0 010 1.5h-6.325a3.751 3.751 0 01-7.35 0zM7.75 17a2.25 2.25 0 114.5 0 2.25 2.25 0 01-4.5 0zM10.325 7.75H4a.75.75 0 010-1.5h6.325a3.751 3.751 0 017.35 0H20a.75.75 0 010 1.5h-2.325a3.751 3.751 0 01-7.35 0zM11.75 7a2.25 2.25 0 114.5 0 2.25 2.25 0 01-4.5 0z" fill="#fff"/></svg><svg fill="none" viewBox="0 0 15 123" id="wave" xmlns="http://www.w3.org/2000/svg"><path fill-rule="evenodd" clip-rule="evenodd" d="M0 5.667a5 5 0 00-10 0v29.535c0 8.029-5 15.77-5 23.798 0 8.029 5 15.77 5 23.798v34.535a5 5 0 1010 0v-19.77C0 84.549 15 72.013 15 59c0-.64-.04-1.273-.118-1.892C13.387 45.235 0 34.3 0 22.333V5.667z" fill="#FF6647"/></svg></svg>