<?xml version="1.0" encoding="utf-8"?><svg viewBox="0 0 24 123" xmlns="http://www.w3.org/2000/svg" xmlns:xlink="http://www.w3.org/1999/xlink"><style>:root>svg{display:none}:root>svg:target{display:block}</style><svg fill="none" viewBox="0 0 16 17" id="area" xmlns="http://www.w3.org/2000/svg"><path d="M14.24.863h-12c-.424 0-.831.17-1.131.47-.3.302-.469.71-.469 1.135v12.04c0 .426.169.834.469 1.135.3.301.707.47 1.131.47h12c.425 0 .832-.169 1.132-.47.3-.3.468-.709.468-1.135V2.468c0-.425-.168-.833-.468-1.135-.3-.3-.707-.47-1.132-.47zm-12 13.922a.275.275 0 01-.275-.277V7.836h6.65a.274.274 0 01.275.276v6.673H2.24zm12.275-.277a.277.277 0 01-.275.277h-4.025V8.112a1.597 1.597 0 00-1.6-1.605h-6.65V2.468a.277.277 0 01.275-.276h12a.274.274 0 01.275.276v12.04z" fill="#757575" stroke="#757575" stroke-width=".2"/></svg><svg fill="none" viewBox="0 0 23 17" id="bed" xmlns="http://www.w3.org/2000/svg"><path d="M20.427 8.415h-.387v-4.48A3.471 3.471 0 0016.579.462H6.044a3.471 3.471 0 00-3.46 3.473v4.48h-.388A1.962 1.962 0 00.24 10.378v2.656a1.962 1.962 0 001.956 1.962h.824v.558c.001.53.43.96.959.961h1.514c.528 0 .957-.43.958-.96v-.559h9.721v.558c.001.53.43.96.959.961h1.514a.96.96 0 00.958-.96v-.559h.824a1.962 1.962 0 001.957-1.962v-2.656a1.962 1.962 0 00-1.957-1.963zM3.486 3.935a2.566 2.566 0 012.558-2.567H16.58a2.566 2.566 0 012.558 2.567v4.48h-.829v-1.57c0-.633-.513-1.147-1.144-1.148h-4.331c-.632.001-1.144.515-1.144 1.148v1.57h-.755v-1.57c0-.633-.512-1.147-1.144-1.148H5.46c-.632.001-1.144.515-1.145 1.148v1.57h-.83v-4.48zm13.919 4.48h-4.813v-1.57c0-.133.108-.242.241-.242h4.33c.134 0 .242.109.242.242v1.57zm-7.374 0H5.218v-1.57c0-.133.108-.242.242-.242h4.33c.133 0 .241.109.241.242v1.57zm-7.835.906h18.23c.582 0 1.053.473 1.054 1.057v1.986H1.143v-1.986c0-.584.472-1.056 1.053-1.057zm3.352 6.233c0 .03-.025.055-.055.055H3.978a.055.055 0 01-.054-.055v-.558h1.624v.558zm13.152 0c0 .03-.025.055-.055.055H17.13a.055.055 0 01-.055-.055v-.558H18.7v.558zm1.727-1.463H2.197a1.055 1.055 0 01-1.026-.821h20.281c-.11.48-.535.82-1.025.82z" fill="#757575" stroke="#757575" stroke-width=".2"/></svg><svg fill="none" viewBox="0 0 20 20" id="calendar" xmlns="http://www.w3.org/2000/svg"><path fill-rule="evenodd" clip-rule="evenodd" d="M5 .25a.75.75 0 01.75.75v1h8.5V1a.75.75 0 011.5 0v1H17a3 3 0 013 3v12a3 3 0 01-3 3H3a3 3 0 01-3-3V5a3 3 0 013-3h1.25V1A.75.75 0 015 .25zm9.25 3.25V5a.75.75 0 001.5 0V3.5H17A1.5 1.5 0 0118.5 5v3.25h-17V5A1.5 1.5 0 013 3.5h1.25V5a.75.75 0 001.5 0V3.5h8.5zM1.5 9.75V17A1.5 1.5 0 003 18.5h14a1.5 1.5 0 001.5-1.5V9.75h-17z" fill="#9BAAD3"/></svg><svg fill="none" viewBox="0 0 24 24" id="compass" xmlns="http://www.w3.org/2000/svg"><path fill-rule="evenodd" clip-rule="evenodd" d="M12 20.5a8.5 8.5 0 100-17 8.5 8.5 0 000 17zM22 12c0 5.523-4.477 10-10 10S2 17.523 2 12 6.477 2 12 2s10 4.477 10 10z" fill="#9BAAD3"/><path fill-rule="evenodd" clip-rule="evenodd" d="M14.937 9.063l-4.06 1.522a.5.5 0 00-.292.293l-1.522 4.059 4.06-1.522a.5.5 0 00.292-.293l1.522-4.059zm.503-1.79L10.351 9.18a2 2 0 00-1.17 1.17l-1.909 5.09c-.301.803.484 1.588 1.288 1.286l5.089-1.908a2 2 0 001.17-1.17l1.908-5.09c.302-.803-.483-1.588-1.287-1.287z" fill="#9BAAD3"/></svg><svg fill="none" viewBox="0 0 20 20" id="dashboard" xmlns="http://www.w3.org/2000/svg"><path fill-rule="evenodd" clip-rule="evenodd" d="M3 20a3 3 0 01-3-3V9.336a3 3 0 01.993-2.23l7-6.3a3 3 0 014.014 0l7 6.3A3 3 0 0120 9.336V17a3 3 0 01-3 3H3zM18.5 9.336V17a1.5 1.5 0 01-1.5 1.5h-3V13a3 3 0 00-3-3H9a3 3 0 00-3 3v5.5H3A1.5 1.5 0 011.5 17V9.336c0-.425.18-.83.497-1.115l7-6.3a1.5 1.5 0 012.006 0l7 6.3a1.5 1.5 0 01.497 1.115zM7.5 18.5V13A1.5 1.5 0 019 11.5h2a1.5 1.5 0 011.5 1.5v5.5h-5z" fill="#fff"/></svg><svg fill="none" viewBox="0 0 19 17" id="heart" xmlns="http://www.w3.org/2000/svg"><path d="M17.344 1.406C16.462.542 15.244.11 13.687.11c-.43 0-.87.075-1.317.225-.448.15-.865.352-1.25.606-.386.254-.717.493-.995.716-.278.223-.542.46-.792.71a9.648 9.648 0 00-.791-.71c-.278-.223-.61-.461-.995-.716a5.325 5.325 0 00-1.25-.606A4.142 4.142 0 004.979.11c-1.556 0-2.774.432-3.656 1.296C.44 2.27 0 3.47 0 5.001c0 .467.082.948.245 1.443.163.494.349.916.557 1.264.208.349.445.688.708 1.02.264.33.457.558.579.684.121.125.217.216.286.272l6.5 6.291a.623.623 0 00.458.189c.18 0 .334-.063.459-.189l6.49-6.27C17.871 8.108 18.666 6.54 18.666 5c0-1.533-.441-2.73-1.323-3.595zm-1.969 7.316l-6.042 5.842-6.052-5.853c-1.298-1.302-1.947-2.54-1.947-3.71 0-.564.074-1.062.223-1.494.15-.432.34-.775.573-1.03.233-.254.516-.461.85-.622.333-.16.66-.268.979-.324.319-.055.66-.083 1.02-.083.361 0 .75.089 1.167.266.417.178.8.401 1.15.67.352.268.652.518.902.752.25.233.458.447.625.643.125.153.295.23.51.23a.624.624 0 00.51-.23c.168-.196.376-.41.626-.643.25-.234.55-.484.9-.753a5.32 5.32 0 011.152-.669c.416-.177.806-.266 1.167-.266.36 0 .7.028 1.02.083.32.056.646.164.98.324.333.16.616.368.849.622.232.255.423.598.573 1.03.149.432.223.93.223 1.494 0 1.17-.652 2.411-1.958 3.721z" fill="#3246D3"/></svg><svg fill="none" viewBox="0 0 12 11" id="leaf" xmlns="http://www.w3.org/2000/svg"><path d="M10.894 2.116C8.07.43 5.236.297 2.697 1.706 1.245 2.505.224 3.829.035 5.189A3.127 3.127 0 00.67 7.573a8.515 8.515 0 013.467-3.475.22.22 0 01.328.252.22.22 0 01-.112.133C1.478 6.09.542 8.504.009 10.663c0 .048.015.095.044.133.083.106.229.084.497.088h.475c.48 0 .484-.031.515-.186.133-.665.34-1.314.616-1.933 2.138.945 5.073-.442 6.3-1.925a6.396 6.396 0 001.079-2.128c.299-.821.585-1.616 1.377-2.207a.221.221 0 000-.367l-.018-.022z" fill="#757575"/></svg><svg fill="none" viewBox="0 0 12 15" id="location" xmlns="http://www.w3.org/2000/svg"><path d="M5.931.1C3.027.1.672 2.516.672 5.498c0 2.41 3.437 6.803 4.754 8.398a.66.66 0 00.505.242.643.643 0 00.505-.242C7.753 12.3 11.19 7.908 11.19 5.498 11.19 2.516 8.835.1 5.93.1zm0 7.019c-.944 0-1.71-.786-1.71-1.755 0-.97.766-1.755 1.71-1.755s1.71.785 1.71 1.755c0 .969-.766 1.755-1.71 1.755z" fill="#FF6647"/></svg><svg fill="none" viewBox="0 0 11 17" id="mark" xmlns="http://www.w3.org/2000/svg"><path d="M9.483.644h-7.92C.792.644.16 1.345.16 2.203v13.606c0 .37.193.72.49.877a.816.816 0 00.93-.117l.017-.02 3.925-3.684 3.925 3.684.018.02c.158.136.35.214.543.214a.739.739 0 00.386-.117c.298-.156.49-.506.49-.877V2.203c0-.858-.63-1.56-1.402-1.56z" fill="#fff"/></svg><svg fill="none" viewBox="0 0 12 12" id="message" xmlns="http://www.w3.org/2000/svg"><path d="M6.894 11.137l-.642-.79a5.805 5.805 0 00-3.24-2.005L3.67 7.6l1.762-2.002-3.158 1.733A5.855 5.855 0 00.968 3.844l-.642-.79L11.356.733 6.894 11.137z" fill="#757575"/></svg><svg fill="none" viewBox="0 0 24 24" id="person" xmlns="http://www.w3.org/2000/svg"><path fill-rule="evenodd" clip-rule="evenodd" d="M12 10.5a3.5 3.5 0 100-7 3.5 3.5 0 000 7zm0 1.5a5 5 0 100-10 5 5 0 000 10zM9 15.75A4.25 4.25 0 004.75 20v1a.75.75 0 01-1.5 0v-1A5.75 5.75 0 019 14.25h6A5.75 5.75 0 0120.75 20v1a.75.75 0 01-1.5 0v-1A4.25 4.25 0 0015 15.75H9z" fill="#9BAAD3"/></svg><svg fill="none" viewBox="0 0 24 24" id="power" xmlns="http://www.w3.org/2000/svg"><path d="M15.733 4.416c.195-.383.665-.537 1.03-.31a9 9 0 11-9.525 0c.364-.227.834-.072 1.029.31.195.382.04.847-.32 1.08a7.446 7.446 0 108.106 0c-.36-.233-.515-.698-.32-1.08z" fill="#9BAAD3"/><path fill-rule="evenodd" clip-rule="evenodd" d="M12 2.25a.75.75 0 01.75.75v5a.75.75 0 01-1.5 0V3a.75.75 0 01.75-.75z" fill="#9BAAD3"/></svg><svg fill="none" viewBox="0 0 12 13" id="reload" xmlns="http://www.w3.org/2000/svg"><path d="M10.928 5.49a.37.37 0 00-.378-.308.375.375 0 00-.363.326 3.375 3.375 0 01-.168.681 4.231 4.231 0 01-1.434 2.005 4.21 4.21 0 01-2.303.862 2.908 2.908 0 01-.283.014 1.123 1.123 0 00-1.125 1.13A1.131 1.131 0 006 11.327a4.957 4.957 0 003.238-1.184 4.988 4.988 0 001.69-3.013 4.752 4.752 0 000-1.64zM7.125 2.423A1.132 1.132 0 006 1.294a4.957 4.957 0 00-3.238 1.184 4.988 4.988 0 00-1.69 3.013 4.753 4.753 0 000 1.64.376.376 0 00.368.309h.01a.375.375 0 00.363-.326 3.37 3.37 0 01.168-.681A4.256 4.256 0 013.53 4.345 4.233 4.233 0 016 3.552a1.125 1.125 0 001.125-1.13z" fill="#757575"/></svg><svg fill="none" viewBox="0 0 19 19" id="search" xmlns="http://www.w3.org/2000/svg"><path fill-rule="evenodd" clip-rule="evenodd" d="M15.872 14.812a9 9 0 10-1.06 1.06l2.658 2.658a.75.75 0 101.06-1.06l-2.658-2.658zM16.5 9a7.5 7.5 0 11-15 0 7.5 7.5 0 0115 0z" fill="#000"/></svg><svg fill="none" viewBox="0 0 24 24" id="settings" xmlns="http://www.w3.org/2000/svg"><path fill-rule="evenodd" clip-rule="evenodd" d="M12 14.5a2.5 2.5 0 100-5 2.5 2.5 0 000 5zm4-2.5a4 4 0 11-8 0 4 4 0 018 0z" fill="#9BAAD3"/><path fill-rule="evenodd" clip-rule="evenodd" d="M10.905 2.842l-.388 1.163c-.327.98-1.044 1.674-1.795 2.093a6.763 6.763 0 00-.19.11c-.739.443-1.7.718-2.714.51l-1.201-.246a.5.5 0 00-.534.24l-.62 1.076a.5.5 0 00.058.581l.815.92c.684.771.93 1.738.916 2.6-.002.074-.002.148 0 .223.013.861-.232 1.828-.916 2.6l-.815.918a.5.5 0 00-.059.582l.621 1.076a.5.5 0 00.534.24l1.201-.246c1.014-.208 1.975.067 2.714.51.063.038.126.075.19.11.751.419 1.468 1.113 1.795 2.093l.388 1.163a.5.5 0 00.474.342h1.242a.5.5 0 00.474-.342l.388-1.163c.327-.98 1.044-1.674 1.795-2.093.064-.035.127-.072.19-.11.739-.443 1.7-.718 2.714-.51l1.202.246a.5.5 0 00.533-.24l.62-1.076a.5.5 0 00-.058-.582l-.815-.919c-.684-.771-.93-1.738-.916-2.6.002-.074.002-.148 0-.223-.013-.861.232-1.828.916-2.6l.815-.919a.5.5 0 00.059-.581l-.621-1.076a.5.5 0 00-.534-.24l-1.201.246c-1.014.208-1.975-.067-2.714-.51a6.738 6.738 0 00-.19-.11c-.751-.419-1.468-1.113-1.795-2.093l-.388-1.163a.5.5 0 00-.474-.342h-1.242a.5.5 0 00-.474.342zm-1.81.688c-.183.547-.6.977-1.103 1.257a8.21 8.21 0 00-.232.135c-.495.297-1.076.442-1.641.327l-1.202-.246a2 2 0 00-2.133.96l-.62 1.075a2 2 0 00.235 2.327l.815.919c.382.43.547 1.005.538 1.58-.002.09-.002.181 0 .271.009.576-.156 1.15-.538 1.581l-.815.92a2 2 0 00-.236 2.326l.621 1.076a2 2 0 002.133.96l1.202-.247c.565-.115 1.146.03 1.64.327.078.046.155.091.233.135.504.28.92.71 1.102 1.257l.388 1.163A2 2 0 0011.379 23h1.242a2 2 0 001.897-1.367l.388-1.163c.182-.547.598-.977 1.102-1.257.078-.044.155-.089.232-.135.495-.297 1.076-.442 1.641-.327l1.202.246a2 2 0 002.133-.96l.62-1.075a2 2 0 00-.235-2.327l-.815-.919c-.382-.43-.547-1.005-.538-1.58.002-.09.002-.181 0-.272-.009-.575.156-1.15.538-1.58l.815-.92a2 2 0 00.236-2.326l-.621-1.076a2 2 0 00-2.133-.96l-1.202.247c-.565.115-1.146-.03-1.64-.327a8.231 8.231 0 00-.233-.135c-.504-.28-.92-.71-1.102-1.257l-.388-1.162A2 2 0 0012.621 1h-1.242a2 2 0 00-1.897 1.368L9.094 3.53z" fill="#9BAAD3"/></svg><svg fill="none" viewBox="0 0 22 17" id="skyscraper" xmlns="http://www.w3.org/2000/svg"><path d="M21.16 15.873h-.922v-3.532a.322.322 0 00-.32-.32h-2.163V4.635a.322.322 0 00-.32-.321h-2.16V.783a.322.322 0 00-.32-.321h-7.44a.32.32 0 00-.32.32v3.533h-2.16a.32.32 0 00-.32.32v7.385H2.552a.32.32 0 00-.32.321v3.532H1.32a.32.32 0 00-.32.321.322.322 0 00.32.321h19.84a.32.32 0 00.32-.32.322.322 0 00-.32-.322zM17.134 4.957v7.063h-.32V5.278h-1.228v6.742h-.32V4.957h1.868zm-.62 2.89v1.605h-.618V7.846h.618zm-.618-.643V5.6h.618v1.605h-.618zm.618 2.89v1.605h-.618v-1.605h.618zM2.862 12.663h1.863v3.21H2.862v-3.21zm2.484-7.706h1.859v10.916h-1.86V4.957zm2.48-3.853h1.241v8.669a.322.322 0 00.31.399.32.32 0 00.311-.4V1.105h4.966V12.02H10.31a.32.32 0 00-.32.321v3.532H7.826V1.103zm2.793 11.558h8.999v3.211h-8.999v-3.21z" fill="#757575" stroke="#757575" stroke-width=".2"/></svg><svg fill="none" viewBox="0 0 24 24" id="tune" xmlns="http://www.w3.org/2000/svg"><path fill-rule="evenodd" clip-rule="evenodd" d="M6.325 17.75H4a.75.75 0 010-1.5h2.325a3.751 3.751 0 017.35 0H20a.75.75 0 010 1.5h-6.325a3.751 3.751 0 01-7.35 0zM7.75 17a2.25 2.25 0 114.5 0 2.25 2.25 0 01-4.5 0zM10.325 7.75H4a.75.75 0 010-1.5h6.325a3.751 3.751 0 017.35 0H20a.75.75 0 010 1.5h-2.325a3.751 3.751 0 01-7.35 0zM11.75 7a2.25 2.25 0 114.5 0 2.25 2.25 0 01-4.5 0z" fill="#fff"/></svg><svg fill="none" viewBox="0 0 15 123" id="wave" xmlns="http://www.w3.org/2000/svg"><path fill-rule="evenodd" clip-rule="evenodd" d="M0 5.667a5 5 0 00-10 0v29.535c0 8.029-5 15.77-5 23.798 0 8.029 5 15.77 5 23.798v34.535a5 5 0 1010 0v-19.77C0 84.549 15 72.013 15 59c0-.64-.04-1.273-.118-1.892C13.387 45.235 0 34.3 0 22.333V5.667z" fill="#FF6647"/></svg></svg>