<?xml version="1.0" encoding="utf-8"?><svg viewBox="0 0 32 32" xmlns="http://www.w3.org/2000/svg" xmlns:xlink="http://www.w3.org/1999/xlink"><style>:root>svg{display:none}:root>svg:target{display:block}</style><svg viewBox="0 0 19 20" id="area" xmlns="http://www.w3.org/2000/svg"><path d="M16.753 1.016H2.635c-.499 0-.978.199-1.331.553s-.551.834-.551 1.335v14.165c0 .501.198.981.551 1.335s.832.553 1.331.553h14.118c.499 0 .978-.199 1.331-.553s.551-.834.551-1.335V2.904c0-.501-.198-.981-.551-1.335s-.832-.553-1.331-.553zM2.635 17.394a.323.323 0 01-.324-.325v-7.85h7.824a.323.323 0 01.324.325v7.85H2.635zm14.442-.325a.325.325 0 01-.324.325h-4.735v-7.85c0-.501-.198-.981-.551-1.335s-.832-.553-1.331-.553H2.312V2.904a.325.325 0 01.324-.325h14.118a.323.323 0 01.324.325v14.165z"/></svg><svg viewBox="0 0 32 32" id="arrow-left" xmlns="http://www.w3.org/2000/svg"><path d="M1 16l15 15v-9h16V10H16V1z"/></svg><svg viewBox="0 0 32 32" id="arrow-right" xmlns="http://www.w3.org/2000/svg"><path d="M31 16L16 1v9H0v12h16v9z"/></svg><svg viewBox="0 0 27 20" id="bed" xmlns="http://www.w3.org/2000/svg"><path d="M24.031 9.9h-.455V4.629A4.084 4.084 0 0019.504.543H7.111a4.083 4.083 0 00-4.072 4.086V9.9h-.455a2.31 2.31 0 00-2.302 2.309v3.124a2.307 2.307 0 002.302 2.309h.969v.656c.001.624.505 1.13 1.127 1.131h1.781a1.13 1.13 0 001.127-1.131v-.656h11.437v.656c.001.624.505 1.13 1.127 1.131h1.782a1.13 1.13 0 001.127-1.131v-.656h.97a2.31 2.31 0 002.302-2.309v-3.124A2.307 2.307 0 0024.031 9.9zM4.101 4.629a3.019 3.019 0 013.01-3.02h12.393a3.019 3.019 0 013.01 3.02V9.9h-.975V8.054a1.35 1.35 0 00-1.346-1.351h-5.095a1.35 1.35 0 00-1.346 1.351V9.9h-.888V8.054a1.35 1.35 0 00-1.346-1.351H6.424a1.35 1.35 0 00-1.346 1.351V9.9h-.975V4.629zM20.476 9.9h-5.663V8.054c0-.157.127-.285.284-.285h5.095c.157 0 .284.128.284.285V9.9zm-8.674 0H6.139V8.054c0-.157.127-.285.284-.285h5.094c.157 0 .284.128.284.285V9.9zm-9.218 1.066h21.447a1.243 1.243 0 011.239 1.243v2.337H1.344v-2.337a1.243 1.243 0 011.239-1.243zm3.943 7.333a.065.065 0 01-.065.065H4.68a.065.065 0 01-.065-.065v-.656h1.911v.656zm15.473 0a.065.065 0 01-.065.065h-1.781a.065.065 0 01-.065-.065v-.656H22v.656zm2.031-1.722H2.584a1.242 1.242 0 01-1.207-.965h23.861c-.13.564-.63.964-1.207.965z"/></svg><svg viewBox="0 0 20 20" id="calendar" xmlns="http://www.w3.org/2000/svg"><path d="M5 .25a.75.75 0 01.75.75v1h8.5V1a.75.75 0 011.5 0v1H17a3 3 0 013 3v12a3 3 0 01-3 3H3a3 3 0 01-3-3V5a3 3 0 013-3h1.25V1A.75.75 0 015 .25zm9.25 3.25h-8.5V5a.75.75 0 01-1.5 0V3.5H3A1.5 1.5 0 001.5 5v3.25h17V5A1.5 1.5 0 0017 3.5h-1.25V5a.75.75 0 01-1.5 0V3.5zM1.5 9.75V17A1.5 1.5 0 003 18.5h14a1.5 1.5 0 001.5-1.5V9.75h-17z"/></svg><svg viewBox="0 0 20 20" id="compass" xmlns="http://www.w3.org/2000/svg"><path d="M10 17.083a7.083 7.083 0 100-14.166 7.083 7.083 0 000 14.166zM18.333 10a8.333 8.333 0 11-16.666 0 8.333 8.333 0 0116.666 0z"/><path d="M12.447 7.553l-1.268 3.382a.414.414 0 01-.244.244l-3.382 1.268 1.268-3.382a.414.414 0 01.244-.244l3.382-1.268zm.42-1.493L8.626 7.65a1.667 1.667 0 00-.975.975l-1.59 4.241a.834.834 0 001.073 1.073l4.241-1.59c.451-.169.806-.525.975-.975l1.59-4.241a.834.834 0 00-1.073-1.073z"/></svg><svg viewBox="0 0 20 20" id="dashboard" xmlns="http://www.w3.org/2000/svg"><path d="M3 20h14a3 3 0 003-3V9.336c0-.85-.361-1.661-.993-2.23l-7-6.3a3 3 0 00-4.014 0l-7 6.3A3 3 0 000 9.336V17a3 3 0 003 3zM18.5 9.336V17a1.5 1.5 0 01-1.5 1.5h-3V13a3 3 0 00-3-3H9a3 3 0 00-3 3v5.5H3A1.5 1.5 0 011.5 17V9.336c0-.425.18-.83.497-1.115l7-6.3a1.501 1.501 0 012.007 0l7 6.3a1.5 1.5 0 01.497 1.115zM7.5 18.5V13A1.5 1.5 0 019 11.5h2a1.5 1.5 0 011.5 1.5v5.5h-5z"/></svg><svg fill="none" viewBox="0 0 16 20" id="fire" xmlns="http://www.w3.org/2000/svg"><path fill="#B0B1B1FF" d="M8 20c-4 0-8-2.7-8-8 0-1.7.6-4 1.2-5.7.122-.345.467-.6.8-.6.436 0 .749.298.9.6.2.6.4 1.2.6 1.7.36.959.8 1.5 1.5 2-.416-1.356-.41-2.63 0-4C5.9 3 7.5 1.5 8.7.7l.2-.1c.2-.1.5 0 .7.1.2.1.4.4.4.8 0 1 .576 3.076 2 4.5 1.848 1.6 4 3.6 4 7 0 3.9-3.6 7-8 7zM2.1 8.5c-.4 1.4-.6 2.6-.6 3.5 0 4.5 3.4 6.5 6.5 6.5 3.6 0 6.5-2.5 6.5-5.5 0-4-3.5-5-5-8-.503-.85-.576-1.456-.8-2.5-.8.8-1.7 2-2.2 3.8-.388 1.165-.31 2.3-.1 3.2.2.6 0 1.2-.4 1.6-.5.4-1.1.5-1.7.2-1.3-.8-1.8-1.8-2.2-2.8z"/></svg><svg viewBox="0 0 20 20" id="group" xmlns="http://www.w3.org/2000/svg"><path d="M15.044 12.302a.712.712 0 00.294.255A2.71 2.71 0 0116.876 15v1.667a.625.625 0 001.25 0V15a3.958 3.958 0 00-3.958-3.958c-.091 0-.131.117-.063.176.363.314.68.679.94 1.084zM5.833 12.292A2.708 2.708 0 003.125 15v1.667a.625.625 0 01-1.25 0V15a3.958 3.958 0 013.958-3.958h5A3.958 3.958 0 0114.791 15v1.667a.625.625 0 01-1.25 0V15a2.708 2.708 0 00-2.708-2.708h-5zM12.392 7.965a.859.859 0 01.329-.334 2.081 2.081 0 000-3.594.859.859 0 01-.329-.334 4.57 4.57 0 00-.778-1.069c-.048-.049-.017-.133.052-.133a3.333 3.333 0 110 6.666c-.069 0-.101-.084-.052-.133.308-.316.571-.676.778-1.069z"/><path d="M8.333 7.917a2.083 2.083 0 110-4.166 2.083 2.083 0 010 4.166zm0 1.25a3.333 3.333 0 100-6.665 3.333 3.333 0 000 6.665z"/></svg><svg viewBox="0 0 22 20" id="heart" xmlns="http://www.w3.org/2000/svg"><path d="M20.404 1.654C19.366.637 17.933.129 16.102.129c-.506 0-1.023.088-1.55.264s-1.017.414-1.47.713c-.454.299-.843.58-1.17.842s-.637.541-.931.836c-.294-.295-.605-.574-.931-.836s-.717-.543-1.17-.842C8.427.807 7.936.569 7.409.393S6.365.129 5.859.129c-1.83 0-3.264.508-4.301 1.525S.002 4.08.002 5.884c0 .549.096 1.115.288 1.697s.411 1.078.656 1.488c.245.41.523.809.833 1.199s.537.658.68.805c.143.148.255.254.337.32l7.647 7.402c.147.148.327.222.539.222s.392-.074.539-.222l7.635-7.378c1.871-1.877 2.806-3.721 2.806-5.533 0-1.804-.519-3.213-1.556-4.229zm-2.316 8.607l-7.108 6.873-7.12-6.886C2.332 8.715 1.568 7.26 1.568 5.883c0-.664.088-1.25.263-1.758s.4-.912.674-1.211c.274-.299.607-.543.999-.732s.776-.316 1.152-.381c.376-.065.776-.098 1.201-.098s.882.104 1.373.313c.49.209.941.471 1.354.787s.766.611 1.06.885c.294.275.539.527.735.756.147.18.347.271.6.271s.453-.09.6-.271c.196-.23.441-.482.735-.756s.648-.569 1.06-.885c.413-.316.864-.578 1.354-.787s.948-.313 1.373-.313.825.033 1.201.098c.376.066.76.193 1.152.381s.725.432.999.732c.274.299.498.703.674 1.211s.263 1.094.263 1.758c0 1.377-.768 2.836-2.304 4.377z"/></svg><svg viewBox="0 0 22 20" id="leaf" xmlns="http://www.w3.org/2000/svg"><path d="M19.808 3.848C14.672.782 9.52.541 4.904 3.102 2.264 4.555.408 6.963.064 9.435a5.686 5.686 0 001.152 4.334A15.48 15.48 0 017.52 7.452a.409.409 0 01.312-.051.39.39 0 01.251.192.403.403 0 01-.172.556C2.687 11.071.983 15.461.015 19.386a.395.395 0 00.08.241c.152.193.416.153.904.161h.864c.872 0 .88-.056.936-.337.242-1.21.618-2.389 1.12-3.516 3.888 1.718 9.224-.803 11.456-3.5a11.622 11.622 0 001.96-3.869c.544-1.493 1.064-2.938 2.504-4.013a.409.409 0 00.177-.333.4.4 0 00-.177-.333l-.032-.04z"/></svg><svg viewBox="0 0 16 20" id="location" xmlns="http://www.w3.org/2000/svg"><path d="M7.908.133C4.036.133.897 3.355.897 7.331c0 3.213 4.583 9.071 6.338 11.197a.864.864 0 001.046.238.885.885 0 00.302-.238c1.756-2.126 6.338-7.983 6.338-11.197 0-3.976-3.139-7.198-7.011-7.198zm0 9.359c-1.259 0-2.279-1.048-2.279-2.34s1.021-2.34 2.279-2.34 2.279 1.047 2.279 2.34c0 1.292-1.021 2.34-2.279 2.34z"/></svg><svg viewBox="0 0 13 20" id="mark" xmlns="http://www.w3.org/2000/svg"><path d="M11.157.757H1.839C.932.757.19 1.583.19 2.592v16.007c0 .436.227.848.577 1.032a.96.96 0 001.093-.138l.021-.023 4.618-4.334 4.639 4.357a.985.985 0 00.639.252.87.87 0 00.454-.138c.35-.184.577-.596.577-1.032V2.591c0-1.009-.742-1.835-1.649-1.835z"/></svg><svg viewBox="0 0 20 20" id="message" xmlns="http://www.w3.org/2000/svg"><path d="M11.49 18.561l-1.07-1.317a9.665 9.665 0 00-5.398-3.34l1.096-1.238L9.055 9.33l-5.264 2.888a9.76 9.76 0 00-2.177-5.811L.544 5.09l18.384-3.869-7.437 17.34z"/></svg><svg viewBox="0 0 20 20" id="person" xmlns="http://www.w3.org/2000/svg"><path d="M10 8.75a2.917 2.917 0 110-5.834 2.917 2.917 0 010 5.834zM10 10a4.167 4.167 0 100-8.334A4.167 4.167 0 0010 10zM7.5 13.125a3.542 3.542 0 00-3.542 3.542v.833a.625.625 0 01-1.25 0v-.833A4.792 4.792 0 017.5 11.875h5a4.792 4.792 0 014.792 4.792v.833a.625.625 0 01-1.25 0v-.833a3.542 3.542 0 00-3.542-3.542h-5z"/></svg><svg viewBox="0 0 20 20" id="power" xmlns="http://www.w3.org/2000/svg"><path d="M13.111 3.68c.162-.319.554-.448.858-.258a7.504 7.504 0 013.325 8.115 7.503 7.503 0 01-7.292 5.749A7.5 7.5 0 016.034 3.422c.303-.189.695-.06.858.258s.033.706-.267.901a6.205 6.205 0 106.755 0c-.3-.195-.429-.582-.267-.901z"/><path d="M10 1.875c.345 0 .625.28.625.625v4.167a.625.625 0 01-1.25 0V2.5c0-.345.28-.625.625-.625z"/></svg><svg viewBox="0 0 18 20" id="reload" xmlns="http://www.w3.org/2000/svg"><path d="M16.813 8.447a.568.568 0 00-.583-.475.578.578 0 00-.558.501c-.05.358-.137.709-.259 1.049a6.488 6.488 0 01-5.749 4.411c-.143.014-.286.02-.435.02a1.735 1.735 0 00-1.73 1.739c0 .461.183.902.508 1.228s.765.508 1.224.508c1.824.009 3.591-.637 4.981-1.821s2.313-2.828 2.601-4.635a7.327 7.327 0 000-2.524zM10.961 3.727c-.001-.46-.183-.902-.508-1.227s-.764-.509-1.223-.509c-1.824-.009-3.591.637-4.981 1.821S1.936 6.64 1.648 8.447a7.327 7.327 0 000 2.524.574.574 0 00.567.474h.015a.578.578 0 00.558-.501c.05-.357.137-.709.259-1.048.44-1.294 1.273-2.417 2.382-3.212s2.438-1.222 3.8-1.221a1.732 1.732 0 001.731-1.736z"/></svg><svg viewBox="0 0 20 20" id="search" xmlns="http://www.w3.org/2000/svg"><path d="M16.708 15.591A9.474 9.474 0 009.474 0a9.474 9.474 0 106.117 16.708l2.798 2.798a.79.79 0 001.116-1.116l-2.798-2.798zm.66-6.117a7.895 7.895 0 11-15.79 0 7.895 7.895 0 0115.79 0z"/></svg><svg viewBox="0 0 20 20" id="settings" xmlns="http://www.w3.org/2000/svg"><path d="M10 12.083a2.083 2.083 0 100-4.166 2.083 2.083 0 000 4.166zM13.333 10a3.333 3.333 0 11-6.665 0 3.333 3.333 0 016.665 0z"/><path d="M9.087 2.368a.417.417 0 01.395-.285h1.035c.179 0 .339.115.395.285l.323.969c.272.817.87 1.396 1.496 1.744.053.03.106.06.159.092.616.37 1.417.598 2.261.426l1.001-.205a.416.416 0 01.444.2l.517.896c.09.155.07.351-.049.485l-.679.766c-.57.643-.774 1.448-.763 2.166v.186c-.011.718.193 1.523.763 2.166l.679.766a.416.416 0 01.049.485l-.517.896a.417.417 0 01-.444.2l-1.001-.205c-.845-.173-1.646.056-2.261.426a6.024 6.024 0 01-.159.092c-.626.348-1.223.927-1.496 1.744l-.323.969a.417.417 0 01-.395.285H9.482a.416.416 0 01-.395-.285l-.323-.969c-.272-.817-.87-1.396-1.496-1.744a6.498 6.498 0 01-.159-.092c-.616-.369-1.417-.598-2.261-.426l-1.001.205a.416.416 0 01-.444-.2l-.517-.896a.416.416 0 01.049-.485l.679-.766c.57-.643.774-1.448.763-2.166a5.766 5.766 0 010-.186c.011-.718-.193-1.523-.763-2.166l-.679-.766a.416.416 0 01-.049-.485l.518-.896a.417.417 0 01.444-.2l1.001.205c.845.173 1.646-.056 2.261-.426.052-.031.105-.062.159-.092.626-.349 1.224-.927 1.496-1.744l.323-.969zm-1.509.574c-.152.456-.499.814-.918 1.047-.065.036-.13.074-.194.112-.412.247-.896.369-1.367.273l-1.001-.205a1.667 1.667 0 00-1.778.799l-.517.896a1.666 1.666 0 00.196 1.939l.679.766c.318.359.456.838.448 1.317a8.513 8.513 0 000 .226c.008.48-.13.958-.448 1.317l-.679.766a1.666 1.666 0 00-.196 1.939l.517.896a1.667 1.667 0 001.778.799l1.001-.205c.471-.096.955.025 1.367.273.064.038.129.076.194.112.42.234.766.592.918 1.047l.323.969c.227.681.864 1.14 1.581 1.14h1.035c.717 0 1.354-.459 1.581-1.14l.323-.969c.152-.456.499-.814.918-1.047.065-.036.13-.074.194-.112.412-.248.896-.369 1.367-.273l1.001.205a1.665 1.665 0 001.777-.799l.517-.896a1.666 1.666 0 00-.196-1.939l-.679-.766c-.318-.359-.456-.838-.448-1.317a8.513 8.513 0 000-.226c-.008-.48.13-.958.448-1.317l.679-.766a1.666 1.666 0 00.196-1.939l-.517-.896a1.667 1.667 0 00-1.777-.799l-1.002.205c-.471.096-.955-.025-1.367-.273a6.123 6.123 0 00-.194-.112c-.42-.234-.766-.592-.918-1.047l-.323-.969a1.667 1.667 0 00-1.581-1.14H9.481c-.717 0-1.354.459-1.581 1.14l-.323.969z"/></svg><svg viewBox="0 0 26 20" id="skyscraper" xmlns="http://www.w3.org/2000/svg"><path d="M24.894 18.674H23.81v-4.155c0-.1-.04-.196-.11-.267s-.166-.111-.266-.111h-2.545V5.453c0-.1-.04-.196-.11-.267s-.166-.111-.266-.111h-2.541V.92c0-.1-.04-.196-.11-.267s-.166-.111-.266-.111H8.843c-.1 0-.196.04-.266.111s-.11.167-.11.267v4.155H5.926c-.1 0-.196.04-.266.111s-.11.167-.11.267v8.688H3.005c-.1 0-.196.04-.266.111s-.11.167-.11.267v4.155H1.556c-.1 0-.196.04-.266.111a.381.381 0 000 .534c.07.071.166.111.266.111h23.341c.1 0 .196-.04.266-.111a.381.381 0 000-.534.374.374 0 00-.266-.111zM20.158 5.831v8.31h-.376V6.209h-1.446v7.932h-.376v-8.31h2.199zm-.73 3.4v1.889h-.727V9.231h.727zm-.727-.755V6.587h.727v1.889h-.727zm.727 3.399v1.889h-.727v-1.889h.727zm-16.06 3.022h2.191v3.777H3.368v-3.777zm2.921-9.066h2.187v12.843H6.289V5.831zm2.918-4.532h1.461v10.199a.376.376 0 00.201.431.38.38 0 00.462-.107.383.383 0 00.069-.324V1.299h5.843v12.843h-5.112c-.1 0-.196.04-.266.111s-.11.167-.11.267v4.155H9.21V1.3zm3.286 13.598h10.586v3.777H12.493v-3.777z"/></svg><svg viewBox="0 0 20 20" id="tune" xmlns="http://www.w3.org/2000/svg"><path d="M5.271 14.792a3.127 3.127 0 006.126 0h5.271a.625.625 0 000-1.25h-5.271a3.127 3.127 0 00-6.126 0H3.333a.625.625 0 000 1.25h1.938zm1.187-.625a1.874 1.874 0 113.749-.001 1.874 1.874 0 01-3.749.001zM8.604 6.458a3.127 3.127 0 006.125 0h1.938a.625.625 0 000-1.25h-1.938a3.127 3.127 0 00-6.125 0H3.333a.625.625 0 000 1.25h5.271zm1.188-.625a1.874 1.874 0 113.749-.001 1.874 1.874 0 01-3.749.001z"/></svg><svg viewBox="0 0 2 20" id="wave" xmlns="http://www.w3.org/2000/svg"><path d="M0 .921a.813.813 0 00-1.626 0v4.803c0 1.305-.813 2.564-.813 3.87s.813 2.564.813 3.87v5.615a.813.813 0 001.626 0v-3.215c0-2.116 2.439-4.154 2.439-6.27 0-.104-.007-.207-.019-.308C2.177 7.356 0 5.577 0 3.632V.922z"/></svg></svg>